<?xml version="1.0" encoding="UTF-8" standalone="no"?>
<!-- Created with Inkscape (http://www.inkscape.org/) -->

<svg
   xmlns:dc="http://purl.org/dc/elements/1.1/"
   xmlns:cc="http://creativecommons.org/ns#"
   xmlns:rdf="http://www.w3.org/1999/02/22-rdf-syntax-ns#"
   xmlns:svg="http://www.w3.org/2000/svg"
   xmlns="http://www.w3.org/2000/svg"
   xmlns:sodipodi="http://sodipodi.sourceforge.net/DTD/sodipodi-0.dtd"
   xmlns:inkscape="http://www.inkscape.org/namespaces/inkscape"
   width="210mm"
   height="297mm"
   viewBox="0 0 210 297"
   version="1.1"
   id="svg8"
   inkscape:version="0.92.5 (2060ec1f9f, 2020-04-08)"
   sodipodi:docname="icon.svg">
  <defs
     id="defs2" />
  <sodipodi:namedview
     id="base"
     pagecolor="#ffffff"
     bordercolor="#666666"
     borderopacity="1.0"
     inkscape:pageopacity="0.0"
     inkscape:pageshadow="2"
     inkscape:zoom="0.7"
     inkscape:cx="308.73106"
     inkscape:cy="601.35083"
     inkscape:document-units="mm"
     inkscape:current-layer="layer1"
     showgrid="false"
     inkscape:window-width="1920"
     inkscape:window-height="1013"
     inkscape:window-x="0"
     inkscape:window-y="0"
     inkscape:window-maximized="1" />
  <metadata
     id="metadata5">
    <rdf:RDF>
      <cc:Work
         rdf:about="">
        <dc:format>image/svg+xml</dc:format>
        <dc:type
           rdf:resource="http://purl.org/dc/dcmitype/StillImage" />
        <dc:title></dc:title>
      </cc:Work>
    </rdf:RDF>
  </metadata>
  <g
     inkscape:label="1. réteg"
     inkscape:groupmode="layer"
     id="layer1">
    <path
       style="fill:#000000;stroke-width:0.04274904"
       d="m 16.781825,76.193788 c -0.718717,-0.19357 -1.270633,-0.76384 -1.417345,-1.46449 -0.06567,-0.31367 -0.0651,-4.32433 5.38e-4,-4.63406 0.111214,-0.52373 0.481116,-1.02846 0.92848,-1.2669 0.538688,-0.28712 -1.442911,-0.26348 22.093404,-0.26348 15.542391,0 21.403622,0.013 21.568598,0.0477 0.725475,0.15277 1.331308,0.75849 1.482948,1.48267 0.06512,0.31101 0.06512,4.32306 0,4.63407 -0.06856,0.3274 -0.314638,0.77075 -0.550015,0.9909 -0.241748,0.22615 -0.618624,0.42464 -0.932933,0.49137 -0.166215,0.0352 -5.914923,0.0473 -21.588266,0.0453 -18.241322,-0.002 -21.394422,-0.0117 -21.585538,-0.0632 z m 5.182697,-10.37095 c 0.457747,-0.37804 1.608624,-1.58671 2.125334,-2.23205 3.453073,-4.31276 5.776273,-10.40169 6.743718,-17.67476 0.303285,-2.280028 0.513693,-5.340175 0.514205,-7.478553 l 1.56e-4,-0.651925 h -2.662834 c -2.873117,0 -2.90514,-0.0021 -3.356737,-0.231046 -0.475471,-0.240935 -0.875194,-0.767377 -0.986586,-1.299333 -0.06567,-0.313669 -0.0651,-4.324327 5.39e-4,-4.634058 0.11121,-0.523723 0.481115,-1.028456 0.92848,-1.266896 0.504236,-0.268758 0.421985,-0.26341 4.0661,-0.264266 l 3.314757,-5.39e-4 -0.534359,-0.279765 C 30.009248,28.705975 28.119614,26.919822 26.868627,24.84842 24.72279,21.295314 24.34642,16.899097 25.856443,13.025519 c 1.218689,-3.1262354 3.528349,-5.6540434 6.549051,-7.1676154 2.993843,-1.500107 6.480237,-1.81822 9.720681,-0.886945 3.581027,1.029155 6.577262,3.506326 8.272902,6.8397184 0.709991,1.395748 1.154571,2.841929 1.368296,4.450973 0.101964,0.767673 0.101444,2.516552 -10e-4,3.290973 -0.210753,1.59341 -0.598751,2.87356 -1.308994,4.318867 -1.234733,2.512593 -3.313136,4.650869 -5.771878,5.938157 l -0.534364,0.279765 3.300258,5.39e-4 c 2.262072,5.28e-4 3.371521,0.01577 3.526796,0.04847 0.725475,0.152777 1.331309,0.758502 1.482943,1.48268 0.06513,0.311004 0.06513,4.32306 0,4.634058 -0.06855,0.327403 -0.314633,0.770748 -0.55001,0.99091 -0.241748,0.22613 -0.618624,0.424626 -0.932933,0.49137 -0.153957,0.03268 -1.07728,0.0481 -2.881777,0.0481 h -2.655239 l 0.02812,1.335903 c 0.06587,3.129595 0.300512,5.771258 0.754662,8.496371 1.084003,6.504465 3.293972,11.957215 6.459069,15.936675 0.507028,0.63747 1.702083,1.89432 2.155371,2.26679 l 0.213742,0.17564 -16.650748,9.4e-4 -16.65075,9.6e-4 0.213744,-0.17652 z"
       id="path826"
       inkscape:connector-curvature="0" />
    <circle
       style="opacity:1;fill:#ffd5d5;fill-opacity:0;fill-rule:evenodd;stroke:#000000;stroke-width:6.66499996;stroke-linecap:round;stroke-linejoin:round;stroke-miterlimit:4;stroke-dasharray:none;stroke-dashoffset:0;stroke-opacity:1;paint-order:normal"
       id="path828"
       cx="107.34523"
       cy="37.330357"
       r="26.080357" />
    <g
       id="g853"
       transform="matrix(1.133214,0,0,1.133214,-45.431532,-70.846402)">
      <path
         inkscape:connector-curvature="0"
         id="path830"
         d="M 96.559411,143.57474 54.405222,185.72893"
         style="fill:none;stroke:#000000;stroke-width:7.84700012;stroke-linecap:butt;stroke-linejoin:miter;stroke-miterlimit:4;stroke-dasharray:none;stroke-opacity:1" />
      <path
         inkscape:connector-curvature="0"
         id="path830-3"
         d="M 96.985211,185.19667 54.831019,143.04248"
         style="fill:none;stroke:#000000;stroke-width:7.84700012;stroke-linecap:butt;stroke-linejoin:miter;stroke-miterlimit:4;stroke-dasharray:none;stroke-opacity:1" />
    </g>
    <path
       style="fill:#000000;stroke-width:0.07160117"
       d="m 97.682682,146.71715 c 1.24884,-1.93051 3.378298,-7.52603 5.241558,-13.77314 0.79915,-2.67937 1.0837,-3.65243 1.0837,-3.70579 0,-0.12788 -0.16267,-0.009 -0.96939,0.70794 -2.84613,2.52967 -5.621258,4.07489 -8.854688,4.93038 -1.60469,0.42458 -2.71581,0.56226 -4.56775,0.56604 -2.78418,0.006 -4.6247,-0.40596 -6.98112,-1.56132 -4.513225,-2.21285 -7.556036,-6.26164 -8.453132,-11.24782 -0.181878,-1.01091 -0.218377,-3.16954 -0.07289,-4.31107 0.338005,-2.65212 1.311949,-5.09895 2.835836,-7.12446 1.977301,-2.62816 4.733736,-4.58721 7.890056,-5.60758 1.67464,-0.54137 1.74333,-0.55124 4.09267,-0.58772 3.99006,-0.0619 5.55133,0.26541 8.95852,1.87851 1.10033,0.52095 1.20534,0.56234 1.13491,0.44734 -0.0301,-0.0491 -0.47784,-0.62092 -0.99506,-1.27069 -5.31738,-6.680346 -6.92134,-10.377656 -6.36438,-14.670566 1.02207,-7.87775 7.76737,-13.97605 15.819078,-14.30171 3.53705,-0.14306 7.3376,0.86629 10.05997,2.67173 2.59204,1.71902 4.8054,4.17278 5.97728,6.62648 1.00756,2.10966 1.56678,4.52214 1.56468,6.75004 -0.001,1.32491 -0.1361,2.0918 -0.60941,3.46617 -0.89034,2.58526 -2.47486,5.178756 -5.4933,8.991296 -0.71659,0.90512 -1.26955,1.65681 -1.22876,1.6704 0.0408,0.0136 0.67868,-0.24851 1.41756,-0.58245 3.1756,-1.43526 4.73273,-1.73983 8.58223,-1.67864 l 2.06932,0.0329 0.96662,0.25562 c 2.78422,0.73626 4.71838,1.76997 6.77619,3.62151 2.15616,1.94003 3.63154,4.22194 4.42747,6.8478 0.44008,1.45188 0.55162,2.1951 0.59202,3.94501 0.053,2.29635 -0.10149,3.42398 -0.72308,5.27887 -0.75574,2.25501 -1.94451,4.16828 -3.66004,5.89057 -2.34578,2.35503 -5.30574,3.8732 -8.66558,4.44456 -1.02749,0.17472 -3.77229,0.17512 -4.90468,6e-4 -4.26823,-0.65743 -7.97165,-2.51314 -11.30809,-5.66626 -0.4384,-0.41431 -0.80837,-0.75328 -0.82218,-0.75328 -0.0138,0 0.214,0.82968 0.50621,1.84373 2.13114,7.39557 4.47151,13.69947 5.88882,15.86188 0.20083,0.30642 0.36515,0.57223 0.36515,0.5907 0,0.0185 -4.9291,0.0336 -10.95354,0.0336 H 97.351922 Z"
       id="path866"
       inkscape:connector-curvature="0" />
  </g>
</svg>
